<mxfile host="app.diagrams.net" modified="2021-11-13T16:05:36.920Z" agent="5.0 (Macintosh; Intel Mac OS X 10_15_7) AppleWebKit/605.1.15 (KHTML, like Gecko) Version/14.1.2 Safari/605.1.15" etag="d1DbK4pUKS5eE2nXwteq" version="15.7.3" type="github">
  <diagram id="R2lEEEUBdFMjLlhIrx00" name="Page-1">
    <mxGraphModel dx="2148" dy="1965" grid="1" gridSize="10" guides="1" tooltips="1" connect="1" arrows="1" fold="1" page="1" pageScale="1" pageWidth="850" pageHeight="1100" math="0" shadow="0" extFonts="Permanent Marker^https://fonts.googleapis.com/css?family=Permanent+Marker">
      <root>
        <mxCell id="0" />
        <mxCell id="1" parent="0" />
        <mxCell id="C-vyLk0tnHw3VtMMgP7b-1" value="" style="edgeStyle=entityRelationEdgeStyle;endArrow=ERzeroToMany;startArrow=ERone;endFill=1;startFill=0;entryX=0;entryY=0.5;entryDx=0;entryDy=0;sketch=1;rounded=0;curved=1;strokeColor=#60E696;fontColor=#095C86;" parent="1" source="C-vyLk0tnHw3VtMMgP7b-24" target="C-vyLk0tnHw3VtMMgP7b-6" edge="1">
          <mxGeometry width="100" height="100" relative="1" as="geometry">
            <mxPoint x="370" y="490" as="sourcePoint" />
            <mxPoint x="440" y="620" as="targetPoint" />
          </mxGeometry>
        </mxCell>
        <mxCell id="C-vyLk0tnHw3VtMMgP7b-2" value="Transaction" style="shape=table;startSize=30;container=1;collapsible=1;childLayout=tableLayout;fixedRows=1;rowLines=0;fontStyle=1;align=center;resizeLast=1;sketch=1;rounded=0;fillColor=#F694C1;strokeColor=#AF45ED;fontColor=#095C86;" parent="1" vertex="1">
          <mxGeometry x="380" y="260" width="250" height="190" as="geometry" />
        </mxCell>
        <mxCell id="C-vyLk0tnHw3VtMMgP7b-3" value="" style="shape=partialRectangle;collapsible=0;dropTarget=0;pointerEvents=0;fillColor=none;points=[[0,0.5],[1,0.5]];portConstraint=eastwest;top=0;left=0;right=0;bottom=1;sketch=1;rounded=0;strokeColor=#AF45ED;fontColor=#095C86;" parent="C-vyLk0tnHw3VtMMgP7b-2" vertex="1">
          <mxGeometry y="30" width="250" height="30" as="geometry" />
        </mxCell>
        <mxCell id="C-vyLk0tnHw3VtMMgP7b-4" value="PK" style="shape=partialRectangle;overflow=hidden;connectable=0;fillColor=none;top=0;left=0;bottom=0;right=0;fontStyle=1;sketch=1;rounded=0;strokeColor=#AF45ED;fontColor=#095C86;" parent="C-vyLk0tnHw3VtMMgP7b-3" vertex="1">
          <mxGeometry width="30" height="30" as="geometry">
            <mxRectangle width="30" height="30" as="alternateBounds" />
          </mxGeometry>
        </mxCell>
        <mxCell id="C-vyLk0tnHw3VtMMgP7b-5" value="transaction_idÂ int NOT NULL " style="shape=partialRectangle;overflow=hidden;connectable=0;fillColor=none;top=0;left=0;bottom=0;right=0;align=left;spacingLeft=6;fontStyle=5;sketch=1;rounded=0;strokeColor=#AF45ED;fontColor=#095C86;" parent="C-vyLk0tnHw3VtMMgP7b-3" vertex="1">
          <mxGeometry x="30" width="220" height="30" as="geometry">
            <mxRectangle width="220" height="30" as="alternateBounds" />
          </mxGeometry>
        </mxCell>
        <mxCell id="C-vyLk0tnHw3VtMMgP7b-6" value="" style="shape=partialRectangle;collapsible=0;dropTarget=0;pointerEvents=0;fillColor=none;points=[[0,0.5],[1,0.5]];portConstraint=eastwest;top=0;left=0;right=0;bottom=0;sketch=1;rounded=0;strokeColor=#AF45ED;fontColor=#095C86;" parent="C-vyLk0tnHw3VtMMgP7b-2" vertex="1">
          <mxGeometry y="60" width="250" height="30" as="geometry" />
        </mxCell>
        <mxCell id="C-vyLk0tnHw3VtMMgP7b-7" value="FK1" style="shape=partialRectangle;overflow=hidden;connectable=0;fillColor=none;top=0;left=0;bottom=0;right=0;sketch=1;rounded=0;strokeColor=#AF45ED;fontColor=#095C86;" parent="C-vyLk0tnHw3VtMMgP7b-6" vertex="1">
          <mxGeometry width="30" height="30" as="geometry">
            <mxRectangle width="30" height="30" as="alternateBounds" />
          </mxGeometry>
        </mxCell>
        <mxCell id="C-vyLk0tnHw3VtMMgP7b-8" value="seller_id int NOT NULL" style="shape=partialRectangle;overflow=hidden;connectable=0;fillColor=none;top=0;left=0;bottom=0;right=0;align=left;spacingLeft=6;sketch=1;rounded=0;strokeColor=#AF45ED;fontColor=#095C86;" parent="C-vyLk0tnHw3VtMMgP7b-6" vertex="1">
          <mxGeometry x="30" width="220" height="30" as="geometry">
            <mxRectangle width="220" height="30" as="alternateBounds" />
          </mxGeometry>
        </mxCell>
        <mxCell id="VurTRdp8EclPyEUgKYpw-1" value="" style="shape=partialRectangle;collapsible=0;dropTarget=0;pointerEvents=0;fillColor=none;points=[[0,0.5],[1,0.5]];portConstraint=eastwest;top=0;left=0;right=0;bottom=0;sketch=1;rounded=0;strokeColor=#AF45ED;fontColor=#095C86;" vertex="1" parent="C-vyLk0tnHw3VtMMgP7b-2">
          <mxGeometry y="90" width="250" height="30" as="geometry" />
        </mxCell>
        <mxCell id="VurTRdp8EclPyEUgKYpw-2" value="FK2" style="shape=partialRectangle;overflow=hidden;connectable=0;fillColor=none;top=0;left=0;bottom=0;right=0;sketch=1;rounded=0;strokeColor=#AF45ED;fontColor=#095C86;" vertex="1" parent="VurTRdp8EclPyEUgKYpw-1">
          <mxGeometry width="30" height="30" as="geometry">
            <mxRectangle width="30" height="30" as="alternateBounds" />
          </mxGeometry>
        </mxCell>
        <mxCell id="VurTRdp8EclPyEUgKYpw-3" value="buyer_id int NOT NULL" style="shape=partialRectangle;overflow=hidden;connectable=0;fillColor=none;top=0;left=0;bottom=0;right=0;align=left;spacingLeft=6;sketch=1;rounded=0;strokeColor=#AF45ED;fontColor=#095C86;" vertex="1" parent="VurTRdp8EclPyEUgKYpw-1">
          <mxGeometry x="30" width="220" height="30" as="geometry">
            <mxRectangle width="220" height="30" as="alternateBounds" />
          </mxGeometry>
        </mxCell>
        <mxCell id="C-vyLk0tnHw3VtMMgP7b-9" value="" style="shape=partialRectangle;collapsible=0;dropTarget=0;pointerEvents=0;fillColor=none;points=[[0,0.5],[1,0.5]];portConstraint=eastwest;top=0;left=0;right=0;bottom=0;sketch=1;rounded=0;strokeColor=#AF45ED;fontColor=#095C86;" parent="C-vyLk0tnHw3VtMMgP7b-2" vertex="1">
          <mxGeometry y="120" width="250" height="30" as="geometry" />
        </mxCell>
        <mxCell id="C-vyLk0tnHw3VtMMgP7b-10" value="FK3" style="shape=partialRectangle;overflow=hidden;connectable=0;fillColor=none;top=0;left=0;bottom=0;right=0;sketch=1;rounded=0;strokeColor=#AF45ED;fontColor=#095C86;" parent="C-vyLk0tnHw3VtMMgP7b-9" vertex="1">
          <mxGeometry width="30" height="30" as="geometry">
            <mxRectangle width="30" height="30" as="alternateBounds" />
          </mxGeometry>
        </mxCell>
        <mxCell id="C-vyLk0tnHw3VtMMgP7b-11" value="pack_id int NOT NULL" style="shape=partialRectangle;overflow=hidden;connectable=0;fillColor=none;top=0;left=0;bottom=0;right=0;align=left;spacingLeft=6;sketch=1;rounded=0;strokeColor=#AF45ED;fontColor=#095C86;" parent="C-vyLk0tnHw3VtMMgP7b-9" vertex="1">
          <mxGeometry x="30" width="220" height="30" as="geometry">
            <mxRectangle width="220" height="30" as="alternateBounds" />
          </mxGeometry>
        </mxCell>
        <mxCell id="VurTRdp8EclPyEUgKYpw-6" value="" style="shape=partialRectangle;collapsible=0;dropTarget=0;pointerEvents=0;fillColor=none;points=[[0,0.5],[1,0.5]];portConstraint=eastwest;top=0;left=0;right=0;bottom=0;sketch=1;rounded=0;strokeColor=#AF45ED;fontColor=#095C86;" vertex="1" parent="C-vyLk0tnHw3VtMMgP7b-2">
          <mxGeometry y="150" width="250" height="30" as="geometry" />
        </mxCell>
        <mxCell id="VurTRdp8EclPyEUgKYpw-7" value="" style="shape=partialRectangle;overflow=hidden;connectable=0;fillColor=none;top=0;left=0;bottom=0;right=0;sketch=1;rounded=0;strokeColor=#AF45ED;fontColor=#095C86;" vertex="1" parent="VurTRdp8EclPyEUgKYpw-6">
          <mxGeometry width="30" height="30" as="geometry">
            <mxRectangle width="30" height="30" as="alternateBounds" />
          </mxGeometry>
        </mxCell>
        <mxCell id="VurTRdp8EclPyEUgKYpw-8" value="timestamp time NOT NULL" style="shape=partialRectangle;overflow=hidden;connectable=0;fillColor=none;top=0;left=0;bottom=0;right=0;align=left;spacingLeft=6;sketch=1;rounded=0;strokeColor=#AF45ED;fontColor=#095C86;" vertex="1" parent="VurTRdp8EclPyEUgKYpw-6">
          <mxGeometry x="30" width="220" height="30" as="geometry">
            <mxRectangle width="220" height="30" as="alternateBounds" />
          </mxGeometry>
        </mxCell>
        <mxCell id="C-vyLk0tnHw3VtMMgP7b-13" value="Pack" style="shape=table;startSize=30;container=1;collapsible=1;childLayout=tableLayout;fixedRows=1;rowLines=0;fontStyle=1;align=center;resizeLast=1;sketch=1;rounded=0;fillColor=#F694C1;strokeColor=#AF45ED;fontColor=#095C86;" parent="1" vertex="1">
          <mxGeometry x="690" y="450" width="250" height="190" as="geometry" />
        </mxCell>
        <mxCell id="C-vyLk0tnHw3VtMMgP7b-14" value="" style="shape=partialRectangle;collapsible=0;dropTarget=0;pointerEvents=0;fillColor=none;points=[[0,0.5],[1,0.5]];portConstraint=eastwest;top=0;left=0;right=0;bottom=1;sketch=1;rounded=0;strokeColor=#AF45ED;fontColor=#095C86;" parent="C-vyLk0tnHw3VtMMgP7b-13" vertex="1">
          <mxGeometry y="30" width="250" height="30" as="geometry" />
        </mxCell>
        <mxCell id="C-vyLk0tnHw3VtMMgP7b-15" value="PK" style="shape=partialRectangle;overflow=hidden;connectable=0;fillColor=none;top=0;left=0;bottom=0;right=0;fontStyle=1;sketch=1;rounded=0;strokeColor=#AF45ED;fontColor=#095C86;" parent="C-vyLk0tnHw3VtMMgP7b-14" vertex="1">
          <mxGeometry width="30" height="30" as="geometry">
            <mxRectangle width="30" height="30" as="alternateBounds" />
          </mxGeometry>
        </mxCell>
        <mxCell id="C-vyLk0tnHw3VtMMgP7b-16" value="pack_id int NOT NULL " style="shape=partialRectangle;overflow=hidden;connectable=0;fillColor=none;top=0;left=0;bottom=0;right=0;align=left;spacingLeft=6;fontStyle=5;sketch=1;rounded=0;strokeColor=#AF45ED;fontColor=#095C86;" parent="C-vyLk0tnHw3VtMMgP7b-14" vertex="1">
          <mxGeometry x="30" width="220" height="30" as="geometry">
            <mxRectangle width="220" height="30" as="alternateBounds" />
          </mxGeometry>
        </mxCell>
        <mxCell id="C-vyLk0tnHw3VtMMgP7b-17" value="" style="shape=partialRectangle;collapsible=0;dropTarget=0;pointerEvents=0;fillColor=none;points=[[0,0.5],[1,0.5]];portConstraint=eastwest;top=0;left=0;right=0;bottom=0;sketch=1;rounded=0;strokeColor=#AF45ED;fontColor=#095C86;" parent="C-vyLk0tnHw3VtMMgP7b-13" vertex="1">
          <mxGeometry y="60" width="250" height="30" as="geometry" />
        </mxCell>
        <mxCell id="C-vyLk0tnHw3VtMMgP7b-18" value="FK1" style="shape=partialRectangle;overflow=hidden;connectable=0;fillColor=none;top=0;left=0;bottom=0;right=0;sketch=1;rounded=0;strokeColor=#AF45ED;fontColor=#095C86;" parent="C-vyLk0tnHw3VtMMgP7b-17" vertex="1">
          <mxGeometry width="30" height="30" as="geometry">
            <mxRectangle width="30" height="30" as="alternateBounds" />
          </mxGeometry>
        </mxCell>
        <mxCell id="C-vyLk0tnHw3VtMMgP7b-19" value="user_id int NOT NULL" style="shape=partialRectangle;overflow=hidden;connectable=0;fillColor=none;top=0;left=0;bottom=0;right=0;align=left;spacingLeft=6;sketch=1;rounded=0;strokeColor=#AF45ED;fontColor=#095C86;" parent="C-vyLk0tnHw3VtMMgP7b-17" vertex="1">
          <mxGeometry x="30" width="220" height="30" as="geometry">
            <mxRectangle width="220" height="30" as="alternateBounds" />
          </mxGeometry>
        </mxCell>
        <mxCell id="C-vyLk0tnHw3VtMMgP7b-20" value="" style="shape=partialRectangle;collapsible=0;dropTarget=0;pointerEvents=0;fillColor=none;points=[[0,0.5],[1,0.5]];portConstraint=eastwest;top=0;left=0;right=0;bottom=0;sketch=1;rounded=0;strokeColor=#AF45ED;fontColor=#095C86;" parent="C-vyLk0tnHw3VtMMgP7b-13" vertex="1">
          <mxGeometry y="90" width="250" height="30" as="geometry" />
        </mxCell>
        <mxCell id="C-vyLk0tnHw3VtMMgP7b-21" value="" style="shape=partialRectangle;overflow=hidden;connectable=0;fillColor=none;top=0;left=0;bottom=0;right=0;sketch=1;rounded=0;strokeColor=#AF45ED;fontColor=#095C86;" parent="C-vyLk0tnHw3VtMMgP7b-20" vertex="1">
          <mxGeometry width="30" height="30" as="geometry">
            <mxRectangle width="30" height="30" as="alternateBounds" />
          </mxGeometry>
        </mxCell>
        <mxCell id="C-vyLk0tnHw3VtMMgP7b-22" value="quantitÃ  float NOT NULL" style="shape=partialRectangle;overflow=hidden;connectable=0;fillColor=none;top=0;left=0;bottom=0;right=0;align=left;spacingLeft=6;sketch=1;rounded=0;strokeColor=#AF45ED;fontColor=#095C86;" parent="C-vyLk0tnHw3VtMMgP7b-20" vertex="1">
          <mxGeometry x="30" width="220" height="30" as="geometry">
            <mxRectangle width="220" height="30" as="alternateBounds" />
          </mxGeometry>
        </mxCell>
        <mxCell id="VurTRdp8EclPyEUgKYpw-23" value="" style="shape=partialRectangle;collapsible=0;dropTarget=0;pointerEvents=0;fillColor=none;points=[[0,0.5],[1,0.5]];portConstraint=eastwest;top=0;left=0;right=0;bottom=0;sketch=1;rounded=0;strokeColor=#AF45ED;fontColor=#095C86;" vertex="1" parent="C-vyLk0tnHw3VtMMgP7b-13">
          <mxGeometry y="120" width="250" height="30" as="geometry" />
        </mxCell>
        <mxCell id="VurTRdp8EclPyEUgKYpw-24" value="" style="shape=partialRectangle;overflow=hidden;connectable=0;fillColor=none;top=0;left=0;bottom=0;right=0;sketch=1;rounded=0;strokeColor=#AF45ED;fontColor=#095C86;" vertex="1" parent="VurTRdp8EclPyEUgKYpw-23">
          <mxGeometry width="30" height="30" as="geometry">
            <mxRectangle width="30" height="30" as="alternateBounds" />
          </mxGeometry>
        </mxCell>
        <mxCell id="VurTRdp8EclPyEUgKYpw-25" value="prezzo float NOT NULL" style="shape=partialRectangle;overflow=hidden;connectable=0;fillColor=none;top=0;left=0;bottom=0;right=0;align=left;spacingLeft=6;sketch=1;rounded=0;strokeColor=#AF45ED;fontColor=#095C86;" vertex="1" parent="VurTRdp8EclPyEUgKYpw-23">
          <mxGeometry x="30" width="220" height="30" as="geometry">
            <mxRectangle width="220" height="30" as="alternateBounds" />
          </mxGeometry>
        </mxCell>
        <mxCell id="VurTRdp8EclPyEUgKYpw-26" value="" style="shape=partialRectangle;collapsible=0;dropTarget=0;pointerEvents=0;fillColor=none;points=[[0,0.5],[1,0.5]];portConstraint=eastwest;top=0;left=0;right=0;bottom=0;sketch=1;rounded=0;strokeColor=#AF45ED;fontColor=#095C86;" vertex="1" parent="C-vyLk0tnHw3VtMMgP7b-13">
          <mxGeometry y="150" width="250" height="30" as="geometry" />
        </mxCell>
        <mxCell id="VurTRdp8EclPyEUgKYpw-27" value="" style="shape=partialRectangle;overflow=hidden;connectable=0;fillColor=none;top=0;left=0;bottom=0;right=0;sketch=1;rounded=0;strokeColor=#AF45ED;fontColor=#095C86;" vertex="1" parent="VurTRdp8EclPyEUgKYpw-26">
          <mxGeometry width="30" height="30" as="geometry">
            <mxRectangle width="30" height="30" as="alternateBounds" />
          </mxGeometry>
        </mxCell>
        <mxCell id="VurTRdp8EclPyEUgKYpw-28" value="verde boolean NOT NULL" style="shape=partialRectangle;overflow=hidden;connectable=0;fillColor=none;top=0;left=0;bottom=0;right=0;align=left;spacingLeft=6;sketch=1;rounded=0;strokeColor=#AF45ED;fontColor=#095C86;" vertex="1" parent="VurTRdp8EclPyEUgKYpw-26">
          <mxGeometry x="30" width="220" height="30" as="geometry">
            <mxRectangle width="220" height="30" as="alternateBounds" />
          </mxGeometry>
        </mxCell>
        <mxCell id="C-vyLk0tnHw3VtMMgP7b-23" value="User" style="shape=table;startSize=30;container=1;collapsible=1;childLayout=tableLayout;fixedRows=1;rowLines=0;fontStyle=1;align=center;resizeLast=1;sketch=1;rounded=0;fillColor=#F694C1;strokeColor=#AF45ED;fontColor=#095C86;" parent="1" vertex="1">
          <mxGeometry x="70" y="480" width="250" height="190" as="geometry" />
        </mxCell>
        <mxCell id="C-vyLk0tnHw3VtMMgP7b-24" value="" style="shape=partialRectangle;collapsible=0;dropTarget=0;pointerEvents=0;fillColor=none;points=[[0,0.5],[1,0.5]];portConstraint=eastwest;top=0;left=0;right=0;bottom=1;sketch=1;rounded=0;strokeColor=#AF45ED;fontColor=#095C86;" parent="C-vyLk0tnHw3VtMMgP7b-23" vertex="1">
          <mxGeometry y="30" width="250" height="30" as="geometry" />
        </mxCell>
        <mxCell id="C-vyLk0tnHw3VtMMgP7b-25" value="PK" style="shape=partialRectangle;overflow=hidden;connectable=0;fillColor=none;top=0;left=0;bottom=0;right=0;fontStyle=1;sketch=1;rounded=0;strokeColor=#AF45ED;fontColor=#095C86;" parent="C-vyLk0tnHw3VtMMgP7b-24" vertex="1">
          <mxGeometry width="30" height="30" as="geometry">
            <mxRectangle width="30" height="30" as="alternateBounds" />
          </mxGeometry>
        </mxCell>
        <mxCell id="C-vyLk0tnHw3VtMMgP7b-26" value="user_id int NOT NULL " style="shape=partialRectangle;overflow=hidden;connectable=0;fillColor=none;top=0;left=0;bottom=0;right=0;align=left;spacingLeft=6;fontStyle=5;sketch=1;rounded=0;strokeColor=#AF45ED;fontColor=#095C86;" parent="C-vyLk0tnHw3VtMMgP7b-24" vertex="1">
          <mxGeometry x="30" width="220" height="30" as="geometry">
            <mxRectangle width="220" height="30" as="alternateBounds" />
          </mxGeometry>
        </mxCell>
        <mxCell id="C-vyLk0tnHw3VtMMgP7b-27" value="" style="shape=partialRectangle;collapsible=0;dropTarget=0;pointerEvents=0;fillColor=none;points=[[0,0.5],[1,0.5]];portConstraint=eastwest;top=0;left=0;right=0;bottom=0;sketch=1;rounded=0;strokeColor=#AF45ED;fontColor=#095C86;" parent="C-vyLk0tnHw3VtMMgP7b-23" vertex="1">
          <mxGeometry y="60" width="250" height="30" as="geometry" />
        </mxCell>
        <mxCell id="C-vyLk0tnHw3VtMMgP7b-28" value="" style="shape=partialRectangle;overflow=hidden;connectable=0;fillColor=none;top=0;left=0;bottom=0;right=0;sketch=1;rounded=0;strokeColor=#AF45ED;fontColor=#095C86;" parent="C-vyLk0tnHw3VtMMgP7b-27" vertex="1">
          <mxGeometry width="30" height="30" as="geometry">
            <mxRectangle width="30" height="30" as="alternateBounds" />
          </mxGeometry>
        </mxCell>
        <mxCell id="C-vyLk0tnHw3VtMMgP7b-29" value="username char(20) NOT NULL" style="shape=partialRectangle;overflow=hidden;connectable=0;fillColor=none;top=0;left=0;bottom=0;right=0;align=left;spacingLeft=6;sketch=1;rounded=0;strokeColor=#AF45ED;fontColor=#095C86;" parent="C-vyLk0tnHw3VtMMgP7b-27" vertex="1">
          <mxGeometry x="30" width="220" height="30" as="geometry">
            <mxRectangle width="220" height="30" as="alternateBounds" />
          </mxGeometry>
        </mxCell>
        <mxCell id="VurTRdp8EclPyEUgKYpw-14" value="" style="shape=partialRectangle;collapsible=0;dropTarget=0;pointerEvents=0;fillColor=none;points=[[0,0.5],[1,0.5]];portConstraint=eastwest;top=0;left=0;right=0;bottom=0;sketch=1;rounded=0;strokeColor=#AF45ED;fontColor=#095C86;" vertex="1" parent="C-vyLk0tnHw3VtMMgP7b-23">
          <mxGeometry y="90" width="250" height="30" as="geometry" />
        </mxCell>
        <mxCell id="VurTRdp8EclPyEUgKYpw-15" value="" style="shape=partialRectangle;overflow=hidden;connectable=0;fillColor=none;top=0;left=0;bottom=0;right=0;sketch=1;rounded=0;strokeColor=#AF45ED;fontColor=#095C86;" vertex="1" parent="VurTRdp8EclPyEUgKYpw-14">
          <mxGeometry width="30" height="30" as="geometry">
            <mxRectangle width="30" height="30" as="alternateBounds" />
          </mxGeometry>
        </mxCell>
        <mxCell id="VurTRdp8EclPyEUgKYpw-16" value="password char(20) NOT NULL" style="shape=partialRectangle;overflow=hidden;connectable=0;fillColor=none;top=0;left=0;bottom=0;right=0;align=left;spacingLeft=6;sketch=1;rounded=0;strokeColor=#AF45ED;fontColor=#095C86;" vertex="1" parent="VurTRdp8EclPyEUgKYpw-14">
          <mxGeometry x="30" width="220" height="30" as="geometry">
            <mxRectangle width="220" height="30" as="alternateBounds" />
          </mxGeometry>
        </mxCell>
        <mxCell id="VurTRdp8EclPyEUgKYpw-17" value="" style="shape=partialRectangle;collapsible=0;dropTarget=0;pointerEvents=0;fillColor=none;points=[[0,0.5],[1,0.5]];portConstraint=eastwest;top=0;left=0;right=0;bottom=0;sketch=1;rounded=0;strokeColor=#AF45ED;fontColor=#095C86;" vertex="1" parent="C-vyLk0tnHw3VtMMgP7b-23">
          <mxGeometry y="120" width="250" height="30" as="geometry" />
        </mxCell>
        <mxCell id="VurTRdp8EclPyEUgKYpw-18" value="" style="shape=partialRectangle;overflow=hidden;connectable=0;fillColor=none;top=0;left=0;bottom=0;right=0;sketch=1;rounded=0;strokeColor=#AF45ED;fontColor=#095C86;" vertex="1" parent="VurTRdp8EclPyEUgKYpw-17">
          <mxGeometry width="30" height="30" as="geometry">
            <mxRectangle width="30" height="30" as="alternateBounds" />
          </mxGeometry>
        </mxCell>
        <mxCell id="VurTRdp8EclPyEUgKYpw-19" value="rag_sociale char(50) NOT NULL" style="shape=partialRectangle;overflow=hidden;connectable=0;fillColor=none;top=0;left=0;bottom=0;right=0;align=left;spacingLeft=6;sketch=1;rounded=0;strokeColor=#AF45ED;fontColor=#095C86;" vertex="1" parent="VurTRdp8EclPyEUgKYpw-17">
          <mxGeometry x="30" width="220" height="30" as="geometry">
            <mxRectangle width="220" height="30" as="alternateBounds" />
          </mxGeometry>
        </mxCell>
        <mxCell id="VurTRdp8EclPyEUgKYpw-20" value="" style="shape=partialRectangle;collapsible=0;dropTarget=0;pointerEvents=0;fillColor=none;points=[[0,0.5],[1,0.5]];portConstraint=eastwest;top=0;left=0;right=0;bottom=0;sketch=1;rounded=0;strokeColor=#AF45ED;fontColor=#095C86;" vertex="1" parent="C-vyLk0tnHw3VtMMgP7b-23">
          <mxGeometry y="150" width="250" height="30" as="geometry" />
        </mxCell>
        <mxCell id="VurTRdp8EclPyEUgKYpw-21" value="" style="shape=partialRectangle;overflow=hidden;connectable=0;fillColor=none;top=0;left=0;bottom=0;right=0;sketch=1;rounded=0;strokeColor=#AF45ED;fontColor=#095C86;" vertex="1" parent="VurTRdp8EclPyEUgKYpw-20">
          <mxGeometry width="30" height="30" as="geometry">
            <mxRectangle width="30" height="30" as="alternateBounds" />
          </mxGeometry>
        </mxCell>
        <mxCell id="VurTRdp8EclPyEUgKYpw-22" value="saldo float NOT NULL" style="shape=partialRectangle;overflow=hidden;connectable=0;fillColor=none;top=0;left=0;bottom=0;right=0;align=left;spacingLeft=6;sketch=1;rounded=0;strokeColor=#AF45ED;fontColor=#095C86;" vertex="1" parent="VurTRdp8EclPyEUgKYpw-20">
          <mxGeometry x="30" width="220" height="30" as="geometry">
            <mxRectangle width="220" height="30" as="alternateBounds" />
          </mxGeometry>
        </mxCell>
        <mxCell id="VurTRdp8EclPyEUgKYpw-4" value="Energy Manager" style="shape=umlActor;verticalLabelPosition=bottom;verticalAlign=top;html=1;outlineConnect=0;rounded=0;sketch=0;fontColor=#095C86;strokeColor=#AF45ED;fillColor=#F694C1;" vertex="1" parent="1">
          <mxGeometry x="10" y="550" width="30" height="60" as="geometry" />
        </mxCell>
        <mxCell id="VurTRdp8EclPyEUgKYpw-10" value="&lt;ul&gt;&lt;li&gt;&lt;div&gt;seller_id Ã¨ ridondante perchÃ© si puÃ² ottenere da pack.user_id ma richiederebbe un join&lt;/div&gt;&lt;/li&gt;&lt;/ul&gt;" style="shape=note;size=20;whiteSpace=wrap;html=1;rounded=0;sketch=1;strokeColor=#AF45ED;fillColor=#F694C1;align=left;fontColor=#095C86;fillStyle=hachure;" vertex="1" parent="1">
          <mxGeometry x="50" y="770" width="550" height="140" as="geometry" />
        </mxCell>
        <mxCell id="VurTRdp8EclPyEUgKYpw-12" value="" style="edgeStyle=entityRelationEdgeStyle;endArrow=ERzeroToMany;startArrow=ERone;endFill=1;startFill=0;entryX=0;entryY=0.5;entryDx=0;entryDy=0;sketch=1;rounded=0;curved=1;strokeColor=#60E696;fontColor=#095C86;exitX=1;exitY=0.5;exitDx=0;exitDy=0;" edge="1" parent="1" source="C-vyLk0tnHw3VtMMgP7b-24" target="VurTRdp8EclPyEUgKYpw-1">
          <mxGeometry width="100" height="100" relative="1" as="geometry">
            <mxPoint x="310" y="510" as="sourcePoint" />
            <mxPoint x="400" y="425" as="targetPoint" />
          </mxGeometry>
        </mxCell>
        <mxCell id="C-vyLk0tnHw3VtMMgP7b-12" value="" style="edgeStyle=entityRelationEdgeStyle;endArrow=ERzeroToMany;startArrow=ERone;endFill=1;startFill=0;entryX=1;entryY=0.5;entryDx=0;entryDy=0;exitX=0;exitY=0.5;exitDx=0;exitDy=0;sketch=1;rounded=0;curved=1;strokeColor=#60E696;fontColor=#095C86;" parent="1" source="C-vyLk0tnHw3VtMMgP7b-14" target="C-vyLk0tnHw3VtMMgP7b-9" edge="1">
          <mxGeometry width="100" height="100" relative="1" as="geometry">
            <mxPoint x="460" y="205" as="sourcePoint" />
            <mxPoint x="400" y="180" as="targetPoint" />
          </mxGeometry>
        </mxCell>
        <mxCell id="VurTRdp8EclPyEUgKYpw-13" value="" style="edgeStyle=entityRelationEdgeStyle;endArrow=ERzeroToMany;startArrow=ERone;endFill=1;startFill=0;entryX=0;entryY=0.5;entryDx=0;entryDy=0;sketch=1;rounded=0;curved=1;strokeColor=#60E696;fontColor=#095C86;" edge="1" parent="1" source="C-vyLk0tnHw3VtMMgP7b-24" target="C-vyLk0tnHw3VtMMgP7b-17">
          <mxGeometry width="100" height="100" relative="1" as="geometry">
            <mxPoint x="310" y="502" as="sourcePoint" />
            <mxPoint x="400" y="420" as="targetPoint" />
          </mxGeometry>
        </mxCell>
        <mxCell id="VurTRdp8EclPyEUgKYpw-51" style="edgeStyle=orthogonalEdgeStyle;curved=0;rounded=1;sketch=1;orthogonalLoop=1;jettySize=auto;html=1;exitX=1;exitY=0.75;exitDx=0;exitDy=0;entryX=0;entryY=0.5;entryDx=0;entryDy=0;fontColor=#095C86;endArrow=none;endFill=0;strokeColor=#60E696;fillColor=#F694C1;" edge="1" parent="1" source="VurTRdp8EclPyEUgKYpw-29" target="VurTRdp8EclPyEUgKYpw-34">
          <mxGeometry relative="1" as="geometry" />
        </mxCell>
        <mxCell id="VurTRdp8EclPyEUgKYpw-52" style="edgeStyle=orthogonalEdgeStyle;curved=0;rounded=1;sketch=1;orthogonalLoop=1;jettySize=auto;html=1;exitX=1;exitY=0.25;exitDx=0;exitDy=0;entryX=0;entryY=0.5;entryDx=0;entryDy=0;fontColor=#095C86;endArrow=none;endFill=0;strokeColor=#60E696;fillColor=#F694C1;" edge="1" parent="1" source="VurTRdp8EclPyEUgKYpw-29" target="VurTRdp8EclPyEUgKYpw-35">
          <mxGeometry relative="1" as="geometry" />
        </mxCell>
        <mxCell id="VurTRdp8EclPyEUgKYpw-53" style="edgeStyle=orthogonalEdgeStyle;curved=0;rounded=1;sketch=1;orthogonalLoop=1;jettySize=auto;html=1;exitX=0.75;exitY=0;exitDx=0;exitDy=0;entryX=0.5;entryY=1;entryDx=0;entryDy=0;fontColor=#095C86;endArrow=none;endFill=0;strokeColor=#60E696;fillColor=#F694C1;" edge="1" parent="1" source="VurTRdp8EclPyEUgKYpw-29" target="VurTRdp8EclPyEUgKYpw-37">
          <mxGeometry relative="1" as="geometry" />
        </mxCell>
        <mxCell id="VurTRdp8EclPyEUgKYpw-29" value="&lt;b&gt;Pack&lt;/b&gt;" style="whiteSpace=wrap;html=1;align=center;rounded=0;sketch=1;fontColor=#095C86;strokeColor=#AF45ED;fillColor=#F694C1;strokeWidth=1;perimeterSpacing=2;" vertex="1" parent="1">
          <mxGeometry x="640" y="60" width="100" height="40" as="geometry" />
        </mxCell>
        <mxCell id="VurTRdp8EclPyEUgKYpw-44" style="edgeStyle=orthogonalEdgeStyle;curved=0;rounded=1;sketch=1;orthogonalLoop=1;jettySize=auto;html=1;exitX=0.5;exitY=1;exitDx=0;exitDy=0;entryX=0;entryY=0.5;entryDx=0;entryDy=0;fontColor=#095C86;strokeColor=#60E696;fillColor=#F694C1;endArrow=classic;endFill=1;" edge="1" parent="1" source="VurTRdp8EclPyEUgKYpw-30" target="VurTRdp8EclPyEUgKYpw-31">
          <mxGeometry relative="1" as="geometry" />
        </mxCell>
        <mxCell id="VurTRdp8EclPyEUgKYpw-30" value="&lt;b&gt;User&lt;/b&gt;" style="whiteSpace=wrap;html=1;align=center;rounded=0;sketch=1;fontColor=#095C86;strokeColor=#AF45ED;fillColor=#F694C1;perimeterSpacing=2;" vertex="1" parent="1">
          <mxGeometry x="300" y="60" width="100" height="40" as="geometry" />
        </mxCell>
        <mxCell id="VurTRdp8EclPyEUgKYpw-45" style="edgeStyle=orthogonalEdgeStyle;curved=0;rounded=1;sketch=1;orthogonalLoop=1;jettySize=auto;html=1;exitX=1;exitY=0.5;exitDx=0;exitDy=0;entryX=0.5;entryY=1;entryDx=0;entryDy=0;fontColor=#095C86;strokeColor=#60E696;fillColor=#F694C1;endArrow=classic;endFill=1;" edge="1" parent="1" source="VurTRdp8EclPyEUgKYpw-31" target="VurTRdp8EclPyEUgKYpw-29">
          <mxGeometry relative="1" as="geometry" />
        </mxCell>
        <mxCell id="VurTRdp8EclPyEUgKYpw-31" value="Possiede" style="shape=rhombus;perimeter=rhombusPerimeter;whiteSpace=wrap;html=1;align=center;rounded=0;sketch=1;fontColor=#095C86;strokeColor=#AF45ED;fillColor=none;strokeWidth=2;" vertex="1" parent="1">
          <mxGeometry x="460" y="140" width="120" height="60" as="geometry" />
        </mxCell>
        <mxCell id="VurTRdp8EclPyEUgKYpw-42" style="edgeStyle=orthogonalEdgeStyle;curved=0;rounded=1;sketch=1;orthogonalLoop=1;jettySize=auto;html=1;exitX=0.5;exitY=0;exitDx=0;exitDy=0;entryX=0;entryY=0.5;entryDx=0;entryDy=0;fontColor=#095C86;strokeColor=#60E696;fillColor=#F694C1;endArrow=classic;endFill=1;" edge="1" parent="1" source="VurTRdp8EclPyEUgKYpw-30" target="VurTRdp8EclPyEUgKYpw-32">
          <mxGeometry relative="1" as="geometry">
            <Array as="points">
              <mxPoint x="350" y="-10" />
            </Array>
          </mxGeometry>
        </mxCell>
        <mxCell id="VurTRdp8EclPyEUgKYpw-43" style="edgeStyle=orthogonalEdgeStyle;curved=0;rounded=1;sketch=1;orthogonalLoop=1;jettySize=auto;html=1;exitX=1;exitY=0.5;exitDx=0;exitDy=0;entryX=0.5;entryY=0;entryDx=0;entryDy=0;fontColor=#095C86;strokeColor=#60E696;fillColor=#F694C1;endArrow=classic;endFill=1;" edge="1" parent="1" source="VurTRdp8EclPyEUgKYpw-32" target="VurTRdp8EclPyEUgKYpw-29">
          <mxGeometry relative="1" as="geometry" />
        </mxCell>
        <mxCell id="VurTRdp8EclPyEUgKYpw-32" value="Compra/Vende" style="shape=rhombus;perimeter=rhombusPerimeter;whiteSpace=wrap;html=1;align=center;rounded=0;sketch=1;fontColor=#095C86;strokeColor=#AF45ED;fillColor=none;strokeWidth=2;" vertex="1" parent="1">
          <mxGeometry x="460" y="-40" width="120" height="60" as="geometry" />
        </mxCell>
        <mxCell id="VurTRdp8EclPyEUgKYpw-50" style="edgeStyle=orthogonalEdgeStyle;curved=0;rounded=1;sketch=1;orthogonalLoop=1;jettySize=auto;html=1;exitX=0.5;exitY=0;exitDx=0;exitDy=0;fontColor=#095C86;endArrow=none;endFill=0;strokeColor=#60E696;fillColor=#F694C1;" edge="1" parent="1" source="VurTRdp8EclPyEUgKYpw-33">
          <mxGeometry relative="1" as="geometry">
            <mxPoint x="720" y="110" as="targetPoint" />
          </mxGeometry>
        </mxCell>
        <mxCell id="VurTRdp8EclPyEUgKYpw-33" value="verde" style="ellipse;whiteSpace=wrap;html=1;align=center;rounded=0;sketch=1;fontColor=#095C86;strokeColor=#AF45ED;fillColor=none;" vertex="1" parent="1">
          <mxGeometry x="680" y="180" width="100" height="40" as="geometry" />
        </mxCell>
        <mxCell id="VurTRdp8EclPyEUgKYpw-34" value="prezzo" style="ellipse;whiteSpace=wrap;html=1;align=center;rounded=0;sketch=1;fontColor=#095C86;strokeColor=#AF45ED;fillColor=none;" vertex="1" parent="1">
          <mxGeometry x="790" y="110" width="100" height="40" as="geometry" />
        </mxCell>
        <mxCell id="VurTRdp8EclPyEUgKYpw-35" value="quantitÃ " style="ellipse;whiteSpace=wrap;html=1;align=center;rounded=0;sketch=1;fontColor=#095C86;strokeColor=#AF45ED;fillColor=none;" vertex="1" parent="1">
          <mxGeometry x="780" y="20" width="100" height="40" as="geometry" />
        </mxCell>
        <mxCell id="VurTRdp8EclPyEUgKYpw-54" style="edgeStyle=orthogonalEdgeStyle;curved=0;rounded=1;sketch=1;orthogonalLoop=1;jettySize=auto;html=1;exitX=0.5;exitY=1;exitDx=0;exitDy=0;entryX=0.5;entryY=0;entryDx=0;entryDy=0;fontColor=#095C86;endArrow=none;endFill=0;strokeColor=#60E696;fillColor=#F694C1;" edge="1" parent="1" source="VurTRdp8EclPyEUgKYpw-36" target="VurTRdp8EclPyEUgKYpw-32">
          <mxGeometry relative="1" as="geometry" />
        </mxCell>
        <mxCell id="VurTRdp8EclPyEUgKYpw-36" value="&lt;b&gt;id&lt;/b&gt;" style="ellipse;whiteSpace=wrap;html=1;align=center;fontStyle=4;rounded=0;sketch=1;fontColor=#095C86;strokeColor=#AF45ED;fillColor=none;" vertex="1" parent="1">
          <mxGeometry x="470" y="-130" width="100" height="40" as="geometry" />
        </mxCell>
        <mxCell id="VurTRdp8EclPyEUgKYpw-37" value="&lt;b&gt;id&lt;/b&gt;" style="ellipse;whiteSpace=wrap;html=1;align=center;fontStyle=4;rounded=0;sketch=1;fontColor=#095C86;strokeColor=#AF45ED;fillColor=none;" vertex="1" parent="1">
          <mxGeometry x="670" y="-60" width="100" height="40" as="geometry" />
        </mxCell>
        <mxCell id="VurTRdp8EclPyEUgKYpw-48" style="edgeStyle=orthogonalEdgeStyle;curved=0;rounded=1;sketch=1;orthogonalLoop=1;jettySize=auto;html=1;exitX=1;exitY=0;exitDx=0;exitDy=0;entryX=0;entryY=1;entryDx=0;entryDy=0;fontColor=#095C86;endArrow=none;endFill=0;strokeColor=#60E696;fillColor=#F694C1;" edge="1" parent="1" source="VurTRdp8EclPyEUgKYpw-38" target="VurTRdp8EclPyEUgKYpw-30">
          <mxGeometry relative="1" as="geometry" />
        </mxCell>
        <mxCell id="VurTRdp8EclPyEUgKYpw-38" value="&lt;b&gt;id&lt;/b&gt;" style="ellipse;whiteSpace=wrap;html=1;align=center;fontStyle=4;rounded=0;sketch=1;fontColor=#095C86;strokeColor=#AF45ED;fillColor=none;" vertex="1" parent="1">
          <mxGeometry x="170" y="130" width="100" height="40" as="geometry" />
        </mxCell>
        <mxCell id="VurTRdp8EclPyEUgKYpw-47" style="edgeStyle=orthogonalEdgeStyle;curved=0;rounded=1;sketch=1;orthogonalLoop=1;jettySize=auto;html=1;exitX=1;exitY=0.5;exitDx=0;exitDy=0;entryX=0;entryY=0.25;entryDx=0;entryDy=0;fontColor=#095C86;endArrow=none;endFill=0;strokeColor=#60E696;fillColor=#F694C1;" edge="1" parent="1" source="VurTRdp8EclPyEUgKYpw-39" target="VurTRdp8EclPyEUgKYpw-30">
          <mxGeometry relative="1" as="geometry" />
        </mxCell>
        <mxCell id="VurTRdp8EclPyEUgKYpw-39" value="rag_sociale" style="ellipse;whiteSpace=wrap;html=1;align=center;rounded=0;sketch=1;fontColor=#095C86;strokeColor=#AF45ED;fillColor=none;" vertex="1" parent="1">
          <mxGeometry x="130" y="50" width="100" height="40" as="geometry" />
        </mxCell>
        <mxCell id="VurTRdp8EclPyEUgKYpw-46" style="edgeStyle=orthogonalEdgeStyle;curved=0;rounded=1;sketch=1;orthogonalLoop=1;jettySize=auto;html=1;exitX=0.5;exitY=1;exitDx=0;exitDy=0;entryX=0.25;entryY=0;entryDx=0;entryDy=0;fontColor=#095C86;endArrow=none;endFill=0;strokeColor=#60E696;fillColor=#F694C1;" edge="1" parent="1" source="VurTRdp8EclPyEUgKYpw-40" target="VurTRdp8EclPyEUgKYpw-30">
          <mxGeometry relative="1" as="geometry" />
        </mxCell>
        <mxCell id="VurTRdp8EclPyEUgKYpw-40" value="saldo" style="ellipse;whiteSpace=wrap;html=1;align=center;rounded=0;sketch=1;fontColor=#095C86;strokeColor=#AF45ED;fillColor=none;" vertex="1" parent="1">
          <mxGeometry x="230" y="-20" width="100" height="40" as="geometry" />
        </mxCell>
        <mxCell id="VurTRdp8EclPyEUgKYpw-49" style="edgeStyle=orthogonalEdgeStyle;curved=0;rounded=1;sketch=1;orthogonalLoop=1;jettySize=auto;html=1;exitX=0.5;exitY=0;exitDx=0;exitDy=0;entryX=0.25;entryY=1;entryDx=0;entryDy=0;fontColor=#095C86;endArrow=none;endFill=0;strokeColor=#60E696;fillColor=#F694C1;" edge="1" parent="1" source="VurTRdp8EclPyEUgKYpw-41" target="VurTRdp8EclPyEUgKYpw-30">
          <mxGeometry relative="1" as="geometry" />
        </mxCell>
        <mxCell id="VurTRdp8EclPyEUgKYpw-41" value="login" style="ellipse;whiteSpace=wrap;html=1;align=center;rounded=0;sketch=1;fontColor=#095C86;strokeColor=#AF45ED;fillColor=none;" vertex="1" parent="1">
          <mxGeometry x="280" y="180" width="100" height="40" as="geometry" />
        </mxCell>
        <mxCell id="VurTRdp8EclPyEUgKYpw-56" style="edgeStyle=orthogonalEdgeStyle;curved=0;rounded=1;sketch=1;orthogonalLoop=1;jettySize=auto;html=1;exitX=0.5;exitY=1;exitDx=0;exitDy=0;entryX=0;entryY=0;entryDx=0;entryDy=0;fontColor=#095C86;endArrow=none;endFill=0;strokeColor=#60E696;fillColor=#F694C1;" edge="1" parent="1" source="VurTRdp8EclPyEUgKYpw-55" target="VurTRdp8EclPyEUgKYpw-32">
          <mxGeometry relative="1" as="geometry" />
        </mxCell>
        <mxCell id="VurTRdp8EclPyEUgKYpw-55" value="timestamp" style="ellipse;whiteSpace=wrap;html=1;align=center;rounded=0;sketch=1;fontColor=#095C86;strokeColor=#AF45ED;fillColor=none;" vertex="1" parent="1">
          <mxGeometry x="340" y="-130" width="100" height="40" as="geometry" />
        </mxCell>
      </root>
    </mxGraphModel>
  </diagram>
</mxfile>
